<svg width="365" height="96" viewBox="0 0 365 96" fill="none" xmlns="http://www.w3.org/2000/svg">
<path fill-rule="evenodd" clip-rule="evenodd" d="M20.1208 0C9.00834 0 0 8.59444 0 19.1962V76.7848C0 87.3865 9.00834 95.9808 20.1208 95.9808H80.4831C91.5958 95.9808 100.604 87.3865 100.604 76.7848V19.1962C100.604 8.59444 91.5958 0 80.4831 0H20.1208ZM27.6661 37.1927H52.7277L23.22 65.3443L32.1123 73.8278L61.6199 45.6762V69.5861H74.1953V31.1938C74.1953 27.8808 71.3804 25.195 67.9076 25.195H27.6661V37.1927Z" fill="black"/>
<path d="M127.456 66.5044C124.84 66.5044 122.543 66.1681 120.562 65.4956C118.62 64.7857 116.976 63.7583 115.631 62.4132C114.286 61.0308 113.277 59.3309 112.604 57.3133C111.932 55.2957 111.596 52.9793 111.596 50.3639V28.451C111.596 27.6664 111.782 27.0873 112.156 26.7137C112.567 26.3027 113.146 26.0972 113.893 26.0972C114.641 26.0972 115.201 26.3027 115.575 26.7137C115.986 27.0873 116.191 27.6664 116.191 28.451V50.1398C116.191 54.2496 117.144 57.332 119.049 59.3869C120.955 61.4045 123.757 62.4132 127.456 62.4132C131.155 62.4132 133.938 61.4045 135.806 59.3869C137.674 57.332 138.608 54.2496 138.608 50.1398V28.451C138.608 27.6664 138.814 27.0873 139.225 26.7137C139.636 26.3027 140.215 26.0972 140.962 26.0972C141.672 26.0972 142.214 26.3027 142.587 26.7137C142.998 27.0873 143.204 27.6664 143.204 28.451V50.3639C143.204 53.8386 142.606 56.7902 141.411 59.2188C140.252 61.6473 138.496 63.4781 136.142 64.711C133.789 65.9066 130.893 66.5044 127.456 66.5044ZM154.275 76.4801C153.527 76.4801 152.967 76.2746 152.593 75.8636C152.22 75.49 152.033 74.9296 152.033 74.1823V40.6685C152.033 39.9212 152.22 39.3608 152.593 38.9872C152.967 38.5762 153.509 38.3707 154.219 38.3707C154.966 38.3707 155.526 38.5762 155.9 38.9872C156.311 39.3608 156.516 39.9212 156.516 40.6685V45.9926L155.9 45.208C156.498 43.0783 157.675 41.397 159.431 40.1641C161.224 38.8937 163.354 38.2586 165.82 38.2586C168.248 38.2586 170.359 38.8377 172.152 39.9959C173.983 41.1168 175.384 42.7421 176.356 44.8717C177.364 46.964 177.869 49.4672 177.869 52.3815C177.869 55.2584 177.364 57.7616 176.356 59.8913C175.384 61.9836 174.002 63.6088 172.209 64.767C170.415 65.9253 168.285 66.5044 165.82 66.5044C163.354 66.5044 161.243 65.8879 159.487 64.655C157.731 63.3846 156.535 61.7034 155.9 59.6111H156.572V74.1823C156.572 74.9296 156.367 75.49 155.956 75.8636C155.545 76.2746 154.985 76.4801 154.275 76.4801ZM164.867 62.8616C166.585 62.8616 168.061 62.4506 169.294 61.6286C170.565 60.8067 171.536 59.6111 172.209 58.0419C172.918 56.4726 173.273 54.5859 173.273 52.3815C173.273 48.9815 172.507 46.3849 170.976 44.5915C169.481 42.7981 167.445 41.9014 164.867 41.9014C163.186 41.9014 161.71 42.3124 160.439 43.1344C159.169 43.919 158.179 45.0959 157.469 46.6651C156.797 48.1969 156.46 50.1024 156.46 52.3815C156.46 55.7441 157.226 58.3408 158.758 60.1715C160.29 61.9649 162.326 62.8616 164.867 62.8616ZM195.361 66.5044C193.232 66.5044 191.438 66.1308 189.981 65.3835C188.561 64.5989 187.497 63.4781 186.787 62.0209C186.077 60.5264 185.722 58.7144 185.722 56.5847V42.2937H181.967C181.332 42.2937 180.846 42.1443 180.51 41.8454C180.174 41.5091 180.006 41.0608 180.006 40.5003C180.006 39.9399 180.174 39.5102 180.51 39.2113C180.846 38.9124 181.332 38.763 181.967 38.763H185.722V32.318C185.722 31.5708 185.927 31.0103 186.338 30.6367C186.749 30.2257 187.31 30.0202 188.02 30.0202C188.73 30.0202 189.271 30.2257 189.645 30.6367C190.056 31.0103 190.261 31.5708 190.261 32.318V38.763H197.323C197.958 38.763 198.444 38.9124 198.78 39.2113C199.116 39.5102 199.284 39.9399 199.284 40.5003C199.284 41.0608 199.116 41.5091 198.78 41.8454C198.444 42.1443 197.958 42.2937 197.323 42.2937H190.261V56.1364C190.261 58.266 190.71 59.8913 191.606 61.0122C192.503 62.0957 193.96 62.6374 195.978 62.6374C196.688 62.6374 197.286 62.5627 197.771 62.4132C198.294 62.2638 198.724 62.1891 199.06 62.1891C199.396 62.1517 199.677 62.2638 199.901 62.5253C200.125 62.7869 200.237 63.2352 200.237 63.8704C200.237 64.3187 200.144 64.7297 199.957 65.1033C199.807 65.4769 199.527 65.7385 199.116 65.8879C198.668 66.0374 198.07 66.1681 197.323 66.2802C196.613 66.4297 195.959 66.5044 195.361 66.5044ZM206.596 66.2802C205.849 66.2802 205.289 66.0747 204.915 65.6637C204.541 65.2154 204.355 64.5989 204.355 63.8143V40.8926C204.355 40.108 204.541 39.5102 204.915 39.0992C205.289 38.6883 205.849 38.4828 206.596 38.4828C207.306 38.4828 207.867 38.6883 208.278 39.0992C208.689 39.5102 208.894 40.108 208.894 40.8926V63.8143C208.894 64.5989 208.689 65.2154 208.278 65.6637C207.904 66.0747 207.344 66.2802 206.596 66.2802ZM206.596 32.2059C205.662 32.2059 204.934 31.9631 204.411 31.4774C203.888 30.9543 203.626 30.2631 203.626 29.4038C203.626 28.5071 203.888 27.8345 204.411 27.3862C204.934 26.9005 205.662 26.6576 206.596 26.6576C207.568 26.6576 208.296 26.9005 208.782 27.3862C209.305 27.8345 209.567 28.5071 209.567 29.4038C209.567 30.2631 209.305 30.9543 208.782 31.4774C208.296 31.9631 207.568 32.2059 206.596 32.2059ZM219.734 66.3923C218.987 66.3923 218.426 66.1868 218.053 65.7758C217.679 65.3648 217.492 64.7857 217.492 64.0385V40.6685C217.492 39.9212 217.679 39.3608 218.053 38.9872C218.426 38.5762 218.968 38.3707 219.678 38.3707C220.388 38.3707 220.93 38.5762 221.303 38.9872C221.714 39.3608 221.92 39.9212 221.92 40.6685V45.6003L221.303 44.8157C222.013 42.7234 223.153 41.1168 224.722 39.9959C226.328 38.8377 228.234 38.2586 230.438 38.2586C232.755 38.2586 234.623 38.819 236.043 39.9399C237.5 41.0234 238.471 42.7234 238.957 45.0398H238.116C238.789 42.9475 239.984 41.3036 241.703 40.108C243.459 38.8751 245.495 38.2586 247.812 38.2586C249.867 38.2586 251.548 38.6509 252.856 39.4355C254.201 40.2201 255.209 41.4157 255.882 43.0223C256.554 44.5915 256.891 46.5904 256.891 49.0189V64.0385C256.891 64.7857 256.685 65.3648 256.274 65.7758C255.901 66.1868 255.34 66.3923 254.593 66.3923C253.883 66.3923 253.323 66.1868 252.912 65.7758C252.538 65.3648 252.351 64.7857 252.351 64.0385V49.2431C252.351 46.7398 251.922 44.9091 251.062 43.7508C250.203 42.5552 248.746 41.9574 246.691 41.9574C244.449 41.9574 242.674 42.7421 241.367 44.3113C240.096 45.8431 239.461 47.9354 239.461 50.5881V64.0385C239.461 64.7857 239.256 65.3648 238.845 65.7758C238.471 66.1868 237.911 66.3923 237.164 66.3923C236.454 66.3923 235.893 66.1868 235.482 65.7758C235.109 65.3648 234.922 64.7857 234.922 64.0385V49.2431C234.922 46.7398 234.473 44.9091 233.577 43.7508C232.717 42.5552 231.279 41.9574 229.261 41.9574C227.02 41.9574 225.245 42.7421 223.937 44.3113C222.667 45.8431 222.032 47.9354 222.032 50.5881V64.0385C222.032 65.6077 221.266 66.3923 219.734 66.3923ZM277.652 66.5044C274.775 66.5044 272.29 65.944 270.198 64.8231C268.143 63.6649 266.536 62.0396 265.378 59.9473C264.257 57.855 263.697 55.3518 263.697 52.4375C263.697 49.598 264.257 47.1321 265.378 45.0398C266.499 42.9102 268.031 41.2476 269.974 40.052C271.954 38.8564 274.233 38.2586 276.811 38.2586C278.642 38.2586 280.286 38.5762 281.743 39.2113C283.2 39.8091 284.433 40.6871 285.442 41.8454C286.488 43.0036 287.272 44.4047 287.796 46.0486C288.356 47.6925 288.636 49.542 288.636 51.5969C288.636 52.1947 288.468 52.643 288.132 52.9419C287.796 53.2035 287.31 53.3342 286.675 53.3342H267.172V50.3639H285.61L284.713 51.0925C284.713 49.0749 284.414 47.375 283.816 45.9926C283.219 44.5728 282.341 43.4893 281.182 42.7421C280.062 41.9948 278.642 41.6212 276.923 41.6212C275.018 41.6212 273.392 42.0695 272.047 42.9662C270.74 43.8256 269.75 45.0398 269.077 46.609C268.405 48.1409 268.068 49.9343 268.068 51.9892V52.3254C268.068 55.7628 268.89 58.3781 270.534 60.1715C272.215 61.9649 274.588 62.8616 277.652 62.8616C278.922 62.8616 280.174 62.6934 281.407 62.3572C282.677 62.0209 283.91 61.4605 285.105 60.6759C285.629 60.3396 286.096 60.1902 286.507 60.2275C286.955 60.2275 287.31 60.3583 287.571 60.6198C287.833 60.844 288.001 61.1429 288.076 61.5165C288.188 61.8528 288.15 62.2264 287.964 62.6374C287.814 63.0484 287.497 63.4033 287.011 63.7022C285.778 64.5989 284.321 65.2901 282.64 65.7758C280.958 66.2615 279.296 66.5044 277.652 66.5044ZM298.12 66.3923C297.373 66.3923 296.794 66.1868 296.383 65.7758C296.009 65.3275 295.822 64.7297 295.822 63.9824V28.451C295.822 27.6664 296.009 27.0873 296.383 26.7137C296.794 26.3027 297.373 26.0972 298.12 26.0972C298.867 26.0972 299.428 26.3027 299.801 26.7137C300.212 27.0873 300.418 27.6664 300.418 28.451V44.4234H300.53L318.8 27.3862C319.248 26.9379 319.697 26.6203 320.145 26.4335C320.594 26.2093 321.079 26.0972 321.602 26.0972C322.312 26.0972 322.817 26.2653 323.115 26.6016C323.452 26.9379 323.582 27.3488 323.508 27.8345C323.433 28.3203 323.171 28.7873 322.723 29.2356L303.612 46.9453L303.668 44.4794L323.62 62.9176C324.18 63.4407 324.479 63.9824 324.517 64.5429C324.554 65.0659 324.386 65.5143 324.012 65.8879C323.676 66.2242 323.153 66.3923 322.443 66.3923C321.882 66.3923 321.397 66.2615 320.986 66C320.612 65.7758 320.183 65.4209 319.697 64.9352L300.53 47.3936H300.418V63.9824C300.418 64.7297 300.231 65.3275 299.858 65.7758C299.484 66.1868 298.905 66.3923 298.12 66.3923ZM333.131 66.2802C332.384 66.2802 331.824 66.0747 331.45 65.6637C331.076 65.2154 330.89 64.5989 330.89 63.8143V40.8926C330.89 40.108 331.076 39.5102 331.45 39.0992C331.824 38.6883 332.384 38.4828 333.131 38.4828C333.841 38.4828 334.402 38.6883 334.813 39.0992C335.224 39.5102 335.429 40.108 335.429 40.8926V63.8143C335.429 64.5989 335.224 65.2154 334.813 65.6637C334.439 66.0747 333.879 66.2802 333.131 66.2802ZM333.131 32.2059C332.197 32.2059 331.469 31.9631 330.946 31.4774C330.423 30.9543 330.161 30.2631 330.161 29.4038C330.161 28.5071 330.423 27.8345 330.946 27.3862C331.469 26.9005 332.197 26.6576 333.131 26.6576C334.103 26.6576 334.831 26.9005 335.317 27.3862C335.84 27.8345 336.102 28.5071 336.102 29.4038C336.102 30.2631 335.84 30.9543 335.317 31.4774C334.831 31.9631 334.103 32.2059 333.131 32.2059ZM354.844 66.5044C352.714 66.5044 350.921 66.1308 349.464 65.3835C348.044 64.5989 346.979 63.4781 346.269 62.0209C345.559 60.5264 345.204 58.7144 345.204 56.5847V42.2937H341.449C340.814 42.2937 340.329 42.1443 339.992 41.8454C339.656 41.5091 339.488 41.0608 339.488 40.5003C339.488 39.9399 339.656 39.5102 339.992 39.2113C340.329 38.9124 340.814 38.763 341.449 38.763H345.204V32.318C345.204 31.5708 345.41 31.0103 345.821 30.6367C346.232 30.2257 346.792 30.0202 347.502 30.0202C348.212 30.0202 348.754 30.2257 349.127 30.6367C349.538 31.0103 349.744 31.5708 349.744 32.318V38.763H356.805C357.44 38.763 357.926 38.9124 358.262 39.2113C358.599 39.5102 358.767 39.9399 358.767 40.5003C358.767 41.0608 358.599 41.5091 358.262 41.8454C357.926 42.1443 357.44 42.2937 356.805 42.2937H349.744V56.1364C349.744 58.266 350.192 59.8913 351.089 61.0122C351.986 62.0957 353.443 62.6374 355.46 62.6374C356.17 62.6374 356.768 62.5627 357.254 62.4132C357.777 62.2638 358.206 62.1891 358.543 62.1891C358.879 62.1517 359.159 62.2638 359.383 62.5253C359.607 62.7869 359.72 63.2352 359.72 63.8704C359.72 64.3187 359.626 64.7297 359.439 65.1033C359.29 65.4769 359.01 65.7385 358.599 65.8879C358.15 66.0374 357.553 66.1681 356.805 66.2802C356.095 66.4297 355.442 66.5044 354.844 66.5044Z" fill="black"/>
</svg>