<svg width="4634" height="1424" viewBox="0 0 4634 1424" fill="none" xmlns="http://www.w3.org/2000/svg">
<g clip-path="url(#clip0_7_2)">
<path opacity="0.989" fill-rule="evenodd" clip-rule="evenodd" d="M3060.5 314.5C3103.17 314.5 3145.83 314.5 3188.5 314.5C3188.33 389.834 3188.5 465.167 3189 540.5C3220.1 515.465 3255.77 503.132 3296 503.5C3346.06 502.721 3387.73 520.721 3421 557.5C3440.31 582.083 3450.98 610.083 3453 641.5C3453.5 732.166 3453.67 822.833 3453.5 913.5C3410.83 913.5 3368.17 913.5 3325.5 913.5C3325.98 831.469 3325.48 749.469 3324 667.5C3314.03 634.337 3291.7 617.004 3257 615.5C3221.75 616.945 3199.42 634.612 3190 668.5C3188.52 750.136 3188.02 831.802 3188.5 913.5C3145.83 913.5 3103.17 913.5 3060.5 913.5C3060.5 713.833 3060.5 514.167 3060.5 314.5Z" fill="black"/>
<path opacity="0.989" fill-rule="evenodd" clip-rule="evenodd" d="M4633.5 511.5C4633.5 547.833 4633.5 584.167 4633.5 620.5C4603.5 620.5 4573.5 620.5 4543.5 620.5C4543.5 718.167 4543.5 815.833 4543.5 913.5C4500.83 913.5 4458.17 913.5 4415.5 913.5C4415.5 815.833 4415.5 718.167 4415.5 620.5C4385.5 620.5 4355.5 620.5 4325.5 620.5C4325.5 584.167 4325.5 547.833 4325.5 511.5C4355.5 511.5 4385.5 511.5 4415.5 511.5C4415.5 456.5 4415.5 401.5 4415.5 346.5C4458.17 346.5 4500.83 346.5 4543.5 346.5C4543.5 401.5 4543.5 456.5 4543.5 511.5C4573.5 511.5 4603.5 511.5 4633.5 511.5Z" fill="black"/>
<path opacity="0.988" fill-rule="evenodd" clip-rule="evenodd" d="M4124.5 500.5C4172.1 497.209 4217.1 506.376 4259.5 528C4278.77 538.765 4295.1 552.932 4308.5 570.5C4284.84 595.498 4260.84 620.164 4236.5 644.5C4208.08 613.078 4172.74 599.912 4130.5 605C4120 606.319 4112.17 611.486 4107 620.5C4104.48 630.602 4107.65 638.436 4116.5 644C4123.82 648.159 4131.48 651.492 4139.5 654C4163.97 660.868 4188.3 668.201 4212.5 676C4240.07 685.682 4262.9 701.849 4281 724.5C4294.57 745.596 4301.07 768.763 4300.5 794C4299.4 846.235 4275.4 883.569 4228.5 906C4199.47 918.44 4169.13 924.273 4137.5 923.5C4074.05 923.186 4017.71 903.353 3968.5 864C3962.68 859.351 3957.35 854.184 3952.5 848.5C3976.5 823.833 4000.83 799.5 4025.5 775.5C4060.01 810.171 4101.67 824.671 4150.5 819C4161.12 817.453 4169.29 812.286 4175 803.5C4178.17 793.027 4175.67 784.194 4167.5 777C4159.5 772.556 4151.17 768.889 4142.5 766C4116.99 758.94 4091.65 751.273 4066.5 743C3997.41 718.346 3970.24 669.846 3985 597.5C3996.42 559.744 4020.25 532.911 4056.5 517C4078.37 507.73 4101.04 502.23 4124.5 500.5Z" fill="black"/>
<path opacity="0.99" fill-rule="evenodd" clip-rule="evenodd" d="M3707.5 502.5C3771.38 500.067 3827.05 519.9 3874.5 562C3931.78 621.343 3949.95 691.176 3929 771.5C3907.49 837.015 3864.65 882.515 3800.5 908C3743.26 927.642 3686.26 926.975 3629.5 906C3553.29 872.434 3509.79 814.268 3499 731.5C3493.11 647.445 3524.95 582.278 3594.5 536C3629.34 515.042 3667.01 503.876 3707.5 502.5ZM3704.5 619.5C3742.04 615.695 3771.54 629.028 3793 659.5C3806.64 684.043 3810.31 710.043 3804 737.5C3794.83 776.669 3770.33 799.169 3730.5 805C3665.85 807.684 3631.51 776.684 3627.5 712C3629.18 660.845 3654.85 630.012 3704.5 619.5Z" fill="black"/>
<path opacity="0.994" fill-rule="evenodd" clip-rule="evenodd" d="M1568.5 330.5C1662.52 330.025 1756.52 330.525 1850.5 332C1898.89 336.605 1938.06 357.772 1968 395.5C1996.72 439.635 2002.39 486.635 1985 536.5C1972.47 564.699 1952.64 586.199 1925.5 601C1983.79 630.219 2013.46 677.553 2014.5 743C2011.74 818.408 1975.4 870.075 1905.5 898C1882.89 906.256 1859.55 910.922 1835.5 912C1746.5 912.5 1657.5 912.667 1568.5 912.5C1568.5 718.5 1568.5 524.5 1568.5 330.5ZM1697.5 432.5C1733.17 432.333 1768.83 432.5 1804.5 433C1852.7 440.571 1871.87 468.404 1862 516.5C1854.65 539.173 1839.15 552.673 1815.5 557C1809.87 557.966 1804.2 558.633 1798.5 559C1764.83 559.5 1731.17 559.667 1697.5 559.5C1697.5 517.167 1697.5 474.833 1697.5 432.5ZM1697.5 658.5C1734.17 658.333 1770.83 658.5 1807.5 659C1855.15 661.813 1880.81 686.98 1884.5 734.5C1881.32 780.179 1856.99 805.345 1811.5 810C1773.5 810.5 1735.5 810.667 1697.5 810.5C1697.5 759.833 1697.5 709.167 1697.5 658.5Z" fill="black"/>
<path opacity="0.989" fill-rule="evenodd" clip-rule="evenodd" d="M2255.5 502.5C2309.31 500.105 2357.31 515.272 2399.5 548C2425.33 569.846 2444.16 596.679 2456 628.5C2488.68 558.186 2543.52 517.019 2620.5 505C2664.78 498.919 2707.45 504.586 2748.5 522C2811.41 553.965 2847.58 605.131 2857 675.5C2858.98 693.501 2858.98 711.501 2857 729.5C2856.05 737.902 2854.22 746.068 2851.5 754C2756.5 754.522 2661.5 755.022 2566.5 755.5C2579.49 795.313 2606.82 817.813 2648.5 823C2692.08 827.537 2728.75 814.037 2758.5 782.5C2781.82 805.319 2804.99 828.319 2828 851.5C2828.32 852.908 2827.98 854.241 2827 855.5C2796.21 889.487 2758.04 910.32 2712.5 918C2660.6 926.977 2610.27 921.644 2561.5 902C2498.18 872.341 2458.85 823.341 2443.5 755C2354.5 754.56 2265.5 754.726 2176.5 755.5C2189.49 795.313 2216.82 817.813 2258.5 823C2302.08 827.537 2338.75 814.037 2368.5 782.5C2392.17 805.5 2415.5 828.833 2438.5 852.5C2410.66 885.772 2375.33 906.939 2332.5 916C2282.02 926.26 2232.36 923.26 2183.5 907C2108.97 876.79 2065.13 821.957 2052 742.5C2043.52 678.386 2059.85 621.72 2101 572.5C2142.91 528.131 2194.41 504.797 2255.5 502.5ZM2252.5 600.5C2281.86 596.788 2307.03 605.121 2328 625.5C2337.72 637.6 2344.22 651.266 2347.5 666.5C2290.49 666.281 2233.49 666.614 2176.5 667.5C2188.15 629.506 2213.49 607.172 2252.5 600.5ZM2642.5 600.5C2671.86 596.788 2697.03 605.121 2718 625.5C2727.72 637.6 2734.22 651.266 2737.5 666.5C2680.49 666.281 2623.49 666.614 2566.5 667.5C2578.15 629.506 2603.49 607.172 2642.5 600.5Z" fill="black"/>
<path opacity="0.984" fill-rule="evenodd" clip-rule="evenodd" d="M2922.5 768.5C2962.28 764.292 2990.11 780.292 3006 816.5C3017.19 853.594 3008.03 884.428 2978.5 909C2954.99 922.868 2930.32 925.202 2904.5 916C2875.22 901.293 2860.22 877.459 2859.5 844.5C2860.12 812.068 2874.79 788.568 2903.5 774C2909.83 771.673 2916.16 769.84 2922.5 768.5Z" fill="#F6C86D"/>
<g opacity="0.995">
<path fill-rule="evenodd" clip-rule="evenodd" d="M786 0C789.667 0 793.333 0 797 0C872.429 8.50844 947.762 16.6751 1023 24.5C1049.83 28.9884 1069.67 43.1551 1082.5 67C1113.22 137.979 1144.22 208.313 1175.5 278C1184.45 305.099 1180.79 330.099 1164.5 353C1118.51 415.657 1072.51 478.324 1026.5 541C1011.1 556.359 992.436 564.359 970.5 565C892.282 556.912 814.282 548.912 736.5 541C709.228 535.701 689.562 520.701 677.5 496C645.671 424.279 614.337 351.945 583.5 279C577.745 255.611 581.578 233.944 595 214C639.693 153.14 684.193 92.1402 728.5 31C743.625 13.0254 762.791 2.69211 786 0Z" fill="#FEB017"/>
<path fill-rule="evenodd" clip-rule="evenodd" d="M786 0C789.667 0 793.333 0 797 0C872.429 8.50844 947.762 16.6751 1023 24.5C1049.83 28.9884 1069.67 43.1551 1082.5 67C1113.22 137.979 1144.22 208.313 1175.5 278C1184.45 305.099 1180.79 330.099 1164.5 353C1118.51 415.657 1072.51 478.324 1026.5 541C1011.1 556.359 992.436 564.359 970.5 565C892.282 556.912 814.282 548.912 736.5 541C709.228 535.701 689.562 520.701 677.5 496C645.671 424.279 614.337 351.945 583.5 279C577.745 255.611 581.578 233.944 595 214C639.693 153.14 684.193 92.1402 728.5 31C743.625 13.0254 762.791 2.69211 786 0Z" fill="#FBB731" fill-opacity="0.2"/>
</g>
<g opacity="0.995">
<path fill-rule="evenodd" clip-rule="evenodd" d="M269 235C347.979 242.796 426.645 250.963 505 259.5C533.26 263.704 553.76 278.538 566.5 304C595.543 371.436 625.21 438.77 655.5 506C666.923 533.275 665.256 559.275 650.5 584C604.256 646.823 558.256 709.823 512.5 773C494.383 792.802 471.883 801.635 445 799.5C369.373 791.606 294.04 783.606 219 775.5C192.735 770.897 173.568 756.731 161.5 733C130.608 661.885 99.6082 591.218 68.5 521C59.5429 491.057 64.8762 464.057 84.5 440C128.474 379.859 172.64 319.859 217 260C231.768 245.458 249.101 237.124 269 235Z" fill="#FEB017"/>
<path fill-rule="evenodd" clip-rule="evenodd" d="M269 235C347.979 242.796 426.645 250.963 505 259.5C533.26 263.704 553.76 278.538 566.5 304C595.543 371.436 625.21 438.77 655.5 506C666.923 533.275 665.256 559.275 650.5 584C604.256 646.823 558.256 709.823 512.5 773C494.383 792.802 471.883 801.635 445 799.5C369.373 791.606 294.04 783.606 219 775.5C192.735 770.897 173.568 756.731 161.5 733C130.608 661.885 99.6082 591.218 68.5 521C59.5429 491.057 64.8762 464.057 84.5 440C128.474 379.859 172.64 319.859 217 260C231.768 245.458 249.101 237.124 269 235Z" fill="#FBB731" fill-opacity="0.2"/>
</g>
<g opacity="0.995">
<path fill-rule="evenodd" clip-rule="evenodd" d="M715 622C793.494 629.451 872.494 637.618 952 646.5C979.916 650.441 1000.75 664.608 1014.5 689C1045.36 759.255 1076.36 829.589 1107.5 900C1116.67 924.822 1114.33 948.489 1100.5 971C1054.46 1033.38 1008.79 1096.04 963.5 1159C944.463 1180.26 920.629 1189.42 892 1186.5C817.988 1178.2 744.155 1170.37 670.5 1163C642.436 1157.94 622.103 1142.61 609.5 1117C579.682 1048.04 549.349 979.371 518.5 911C508.945 884.966 511.278 860.299 525.5 837C570.829 775.015 616.162 713.015 661.5 651C675.729 634.443 693.563 624.777 715 622Z" fill="#FEB017"/>
<path fill-rule="evenodd" clip-rule="evenodd" d="M715 622C793.494 629.451 872.494 637.618 952 646.5C979.916 650.441 1000.75 664.608 1014.5 689C1045.36 759.255 1076.36 829.589 1107.5 900C1116.67 924.822 1114.33 948.489 1100.5 971C1054.46 1033.38 1008.79 1096.04 963.5 1159C944.463 1180.26 920.629 1189.42 892 1186.5C817.988 1178.2 744.155 1170.37 670.5 1163C642.436 1157.94 622.103 1142.61 609.5 1117C579.682 1048.04 549.349 979.371 518.5 911C508.945 884.966 511.278 860.299 525.5 837C570.829 775.015 616.162 713.015 661.5 651C675.729 634.443 693.563 624.777 715 622Z" fill="#FBB731" fill-opacity="0.2"/>
</g>
<g opacity="0.995">
<path fill-rule="evenodd" clip-rule="evenodd" d="M398 1424C393.667 1424 389.333 1424 385 1424C308.757 1415.56 232.091 1407.06 155 1398.5C127.383 1393.12 107.883 1377.62 96.5 1352C66.8215 1283.39 36.4881 1214.73 5.5 1146C3.48059 1138.92 1.64726 1131.92 0 1125C0 1124.33 0 1123.67 0 1123C1.33333 1122.67 1.33333 1122.33 0 1122C0 1118.33 0 1114.67 0 1111C1.33333 1110.67 1.33333 1110.33 0 1110C0 1109.33 0 1108.67 0 1108C2.36554 1095.08 7.19887 1083.08 14.5 1072C59.8581 1009.98 105.191 947.982 150.5 886C169.395 865.143 192.895 856.31 221 859.5C292.334 867.167 363.667 874.833 435 882.5C466.796 884.969 489.629 900.469 503.5 929C533.359 996.104 563.025 1063.1 592.5 1130C604.539 1158.63 602.206 1185.96 585.5 1212C540.78 1272.39 496.447 1333.05 452.5 1394C438.225 1411.22 420.058 1421.22 398 1424Z" fill="#FEB017"/>
<path fill-rule="evenodd" clip-rule="evenodd" d="M398 1424C393.667 1424 389.333 1424 385 1424C308.757 1415.56 232.091 1407.06 155 1398.5C127.383 1393.12 107.883 1377.62 96.5 1352C66.8215 1283.39 36.4881 1214.73 5.5 1146C3.48059 1138.92 1.64726 1131.92 0 1125C0 1124.33 0 1123.67 0 1123C1.33333 1122.67 1.33333 1122.33 0 1122C0 1118.33 0 1114.67 0 1111C1.33333 1110.67 1.33333 1110.33 0 1110C0 1109.33 0 1108.67 0 1108C2.36554 1095.08 7.19887 1083.08 14.5 1072C59.8581 1009.98 105.191 947.982 150.5 886C169.395 865.143 192.895 856.31 221 859.5C292.334 867.167 363.667 874.833 435 882.5C466.796 884.969 489.629 900.469 503.5 929C533.359 996.104 563.025 1063.1 592.5 1130C604.539 1158.63 602.206 1185.96 585.5 1212C540.78 1272.39 496.447 1333.05 452.5 1394C438.225 1411.22 420.058 1421.22 398 1424Z" fill="#FBB731" fill-opacity="0.2"/>
</g>
</g>
<defs>
<clipPath id="clip0_7_2">
<rect width="4634" height="1424" fill="white"/>
</clipPath>
</defs>
</svg>
